HIERARCHY
ROOT Pelvis
{
	OFFSET 0.000000 0.000000 0.000000
	CHANNELS 6 Xposition Yposition Zposition Xrotation Yrotation Zrotation
	JOINT LeftUpLeg_virtual
	{
		OFFSET 0.000000 0.000000 0.000000
		CHANNELS 3 Xrotation Yrotation Zrotation
		JOINT LeftUpLeg
		{
			OFFSET 18.735201 -5.666702 -4.541200
			CHANNELS 3 Xrotation Yrotation Zrotation
			JOINT LeftLeg
			{
				OFFSET -0.021200 -31.938179 0.493100
				CHANNELS 3 Xrotation Yrotation Zrotation
				JOINT LeftFoot
				{
					OFFSET 0.021200 -31.938179 -4.336299
					CHANNELS 3 Xrotation Yrotation Zrotation
					JOINT LeftToeBase
					{
						OFFSET 0.943001 -26.722000 15.023500
						CHANNELS 3 Xrotation Yrotation Zrotation
						End Site
						{
							OFFSET 0 0 0
						}
					}
				}
			}
		}
	}
	JOINT RightUpLeg_virtual
	{
		OFFSET 0.000000 0.000000 0.000000
		CHANNELS 3 Xrotation Yrotation Zrotation
		JOINT RightUpLeg
		{
			OFFSET -18.735201 -5.666702 -4.541200
			CHANNELS 3 Xrotation Yrotation Zrotation
			JOINT RightLeg
			{
				OFFSET 0.018946 -31.938133 0.493100
				CHANNELS 3 Xrotation Yrotation Zrotation
				JOINT RightFoot
				{
					OFFSET -0.018946 -31.938126 -4.336299
					CHANNELS 3 Xrotation Yrotation Zrotation
					JOINT RightToeBase
					{
						OFFSET -0.943001 -26.722004 15.023500
						CHANNELS 3 Xrotation Yrotation Zrotation
						End Site
						{
							OFFSET 0 0 0
						}
					}
				}
			}
		}
	}
	JOINT Hips_virtual
	{
		OFFSET 0.000000 0.000000 0.000000
		CHANNELS 3 Xrotation Yrotation Zrotation
		JOINT Hips
		{
			OFFSET -0.000000 -0.000000 -0.000000
			CHANNELS 3 Xrotation Yrotation Zrotation
			JOINT Spine
			{
				OFFSET 0.000000 10.199997 -0.299500
				CHANNELS 3 Xrotation Yrotation Zrotation
				JOINT Spine1
				{
					OFFSET 0.000000 11.900002 -1.516600
					CHANNELS 3 Xrotation Yrotation Zrotation
					JOINT Spine2
					{
						OFFSET 0.000000 13.600006 -2.842500
						CHANNELS 3 Xrotation Yrotation Zrotation
						JOINT Neck_virtual
						{
							OFFSET 0.000000 0.000000 0.000000
							CHANNELS 3 Xrotation Yrotation Zrotation
							JOINT Neck
							{
								OFFSET 0.000000 9.624100 -2.890100
								CHANNELS 3 Xrotation Yrotation Zrotation
								JOINT Head
								{
									OFFSET 0.000000 14.068802 -1.351900
									CHANNELS 3 Xrotation Yrotation Zrotation
									End Site
									{
										OFFSET 0 0 0
									}
								}
							}
						}
						JOINT LeftShoulder_virtual
						{
							OFFSET 0.000000 0.000000 0.000000
							CHANNELS 3 Xrotation Yrotation Zrotation
							JOINT LeftShoulder
							{
								OFFSET 15.263000 10.923401 -0.547700
								CHANNELS 3 Xrotation Yrotation Zrotation
								JOINT LeftArm
								{
									OFFSET 25.438599 -2.830597 -13.032500
									CHANNELS 3 Xrotation Yrotation Zrotation
									JOINT LeftForeArm
									{
										OFFSET 29.960503 0.000000 0.000000
										CHANNELS 3 Xrotation Yrotation Zrotation
										JOINT LeftHand
										{
											OFFSET 27.849251 0.000000 0.000000
											CHANNELS 3 Xrotation Yrotation Zrotation
											End Site
											{
												OFFSET 0 0 0
											}
										}
									}
								}
							}
						}
						JOINT RightShoulder_virtual
						{
							OFFSET 0.000000 0.000000 0.000000
							CHANNELS 3 Xrotation Yrotation Zrotation
							JOINT RightShoulder
							{
								OFFSET -15.263000 10.923401 -0.547700
								CHANNELS 3 Xrotation Yrotation Zrotation
								JOINT RightArm
								{
									OFFSET -25.438599 -2.830597 -13.032500
									CHANNELS 3 Xrotation Yrotation Zrotation
									JOINT RightForeArm
									{
										OFFSET -29.960503 0.000000 0.000000
										CHANNELS 3 Xrotation Yrotation Zrotation
										JOINT RightHand
										{
											OFFSET -27.849251 0.000000 0.000000
											CHANNELS 3 Xrotation Yrotation Zrotation
											End Site
											{
												OFFSET 0 0 0
											}
										}
									}
								}
							}
						}
					}
				}
			}
		}
	}
}
MOTION
Frames: 4
Frame Time: 0.03333333
4.173298 73.693481 133.928650 0.000000 0.000000 0.000000 24.445824 0.302077 3.200347 -8.078966 14.399304 19.266338 31.333250 4.833809 -9.575454 -18.802623 9.494511 -16.124400 0.000000 0.000000 0.000000 -19.758125 -21.437763 1.437247 -58.988253 -6.867046 -14.291650 63.436741 5.494441 -8.737041 7.294499 8.730288 2.072991 0.000000 0.000000 0.000000 7.964573 -7.031596 3.816131 5.102996 1.869676 0.163590 6.336596 -8.738400 1.188286 4.751021 -5.515400 -0.486532 0.000000 0.000000 0.000000 5.105364 -4.258136 2.605040 0.665134 -1.539942 1.297236 0.000000 0.000000 0.000000 4.374360 -5.552895 -1.079101 -2.161717 -22.957878 -7.623828 -58.750958 -15.545019 -23.290339 -16.455895 -56.751434 -2.234106 0.000000 0.000000 0.000000 3.967717 -5.469950 0.399230 1.146813 -13.698142 0.541614 36.514379 9.388810 -1.314680 32.444464 58.516799 -30.391664 0.000000 0.000000 0.000000 
4.105768 73.411018 135.488541 0.000000 0.000000 0.000000 23.882122 0.725754 2.664197 -8.756917 14.442392 18.802823 33.038445 4.896012 -9.373554 -17.433370 9.450450 -15.904560 0.000000 0.000000 0.000000 -19.716977 -21.558550 1.606397 -58.993908 -6.968362 -14.164540 63.203169 5.629323 -8.680732 6.769726 8.771641 2.312733 0.000000 0.000000 0.000000 6.995080 -9.203567 3.795440 6.398966 3.156231 0.094886 6.302118 -10.528534 1.587182 4.776768 -6.466273 -0.218699 0.000000 0.000000 0.000000 4.772218 -5.103446 3.121380 0.668362 -1.636842 1.539240 0.000000 0.000000 0.000000 4.491515 -6.900223 -0.818516 -2.358054 -25.707241 -7.311611 -56.207204 -15.868368 -24.433245 -14.471322 -54.614370 -2.109515 0.000000 0.000000 0.000000 3.774306 -6.492296 1.044127 1.285840 -16.262687 1.881294 34.015698 3.936660 2.144506 26.856095 55.408772 -24.788165 0.000000 0.000000 0.000000 
4.022377 73.226784 137.242371 0.000000 0.000000 0.000000 23.238267 1.142549 2.126879 -9.647662 14.474699 18.374361 35.307912 4.959219 -9.087094 -15.648623 9.348576 -15.549989 0.000000 0.000000 0.000000 -19.241908 -21.374864 1.914927 -58.520637 -7.081850 -13.974137 62.925242 5.772731 -8.594804 6.180609 8.794012 2.611360 0.000000 0.000000 0.000000 5.974196 -11.234206 3.683217 7.364006 4.075906 -0.055142 6.282836 -12.104271 1.920080 4.806312 -7.297042 0.017390 0.000000 0.000000 0.000000 4.422311 -5.828377 3.542736 0.655690 -1.697763 1.748679 0.000000 0.000000 0.000000 4.595994 -8.075135 -0.605260 -2.556755 -28.081691 -7.010379 -53.803944 -16.215038 -25.628181 -12.746262 -52.789091 -2.215835 0.000000 0.000000 0.000000 3.619090 -7.369295 1.612556 1.444489 -18.467657 2.981624 31.729818 -0.860449 4.848740 22.736250 52.881555 -20.703673 0.000000 0.000000 0.000000 
3.895731 73.122055 139.185974 0.000000 0.000000 0.000000 22.528071 1.327201 1.632769 -10.725015 14.437768 17.972801 38.082136 5.022507 -8.687132 -13.475367 9.174252 -15.014207 0.000000 0.000000 0.000000 -18.315600 -20.880925 2.374858 -57.538108 -7.215283 -13.702118 62.633497 5.928667 -8.491239 5.568829 8.812697 2.950526 0.000000 0.000000 0.000000 4.924462 -13.194870 3.499087 8.024358 4.489068 -0.233246 6.258902 -13.438959 2.168389 4.827512 -7.994555 0.210629 0.000000 0.000000 0.000000 4.054105 -6.415814 3.868445 0.624242 -1.716398 1.923262 0.000000 0.000000 0.000000 4.667532 -9.070636 -0.449795 -2.782138 -30.062733 -6.767138 -51.699228 -16.559939 -26.914408 -11.339488 -51.360229 -2.559524 0.000000 0.000000 0.000000 3.499503 -8.088632 2.098868 1.592759 -20.267446 3.817599 29.547528 -4.907479 6.899816 19.579007 51.020752 -17.618312 0.000000 0.000000 0.000000 
